<?xml version="1.0" encoding="UTF-8"?>
<!DOCTYPE svg PUBLIC "-//W3C//DTD SVG 1.1//EN" "http://www.w3.org/Graphics/SVG/1.1/DTD/svg11.dtd">
<svg version="1.1" xmlns="http://www.w3.org/2000/svg" xmlns:xlink="http://www.w3.org/1999/xlink" x="0" y="0" width="841.9" height="595.3" viewBox="0, 0, 841.9, 595.3">
  <g id="Layer_1">
    <path d="M627.078,358.716 C606.052,329.384 569.536,309.959 569.536,309.959 C569.536,309.959 605.678,271.842 618.6,234.084 C631.5,196.327 634.449,152.336 572.118,142.796 C509.787,133.27 445.609,175.42 445.609,175.42 C445.609,175.42 424.956,141.703 407.26,120.071 C389.563,98.438 343.081,57.381 305.458,85.972 C267.835,114.564 274.48,196.678 274.48,196.678 C274.48,196.678 180.423,180.92 163.467,226.744 C146.504,272.568 270.798,337.263 270.798,337.263 C233.176,378.507 199.616,450.363 197.768,467.588 C195.927,484.821 192.604,514.146 247.557,509.746 C302.51,505.346 394.367,448.163 394.367,448.163 C394.367,448.163 414.645,469.063 445.623,493.262 C476.602,517.453 505.754,505.728 524.191,484.829 C542.629,463.937 538.207,420.313 538.207,420.313 C538.207,420.313 590.959,422.146 617.875,412.98 C644.797,403.806 648.119,388.048 627.093,358.731 M562.113,178.353 C592.358,183.853 601.211,223.444 591.992,248.369 C582.789,273.286 561.013,303.366 561.013,303.366 C561.013,303.366 524.498,280.993 506.068,273.301 C506.068,273.301 471.027,209.152 465.497,202.186 C465.497,202.186 531.868,172.854 562.121,178.353 M518.539,359.449 L526.284,399.032 C526.284,399.032 508.947,400.873 477.968,393.907 C477.968,393.907 513.01,366.041 518.547,359.449 M461.143,390.224 C460.02,390.599 361.174,362 358.233,360.892 C355.285,359.8 324.3,304.443 324.3,302.243 C324.3,300.043 390.686,243.953 402.493,237.728 C402.493,237.728 480.687,268.885 488.432,276.585 C496.176,284.292 513.873,346.608 513.873,346.608 C513.873,346.608 462.242,389.858 461.135,390.232 M510.887,288.685 C510.887,288.685 548.136,310.31 549.984,312.884 C551.825,315.451 525.643,339.276 525.643,339.276 C525.643,339.276 513.469,292.718 510.887,288.693 M448.09,212.268 C448.09,212.268 474.279,246.726 477.968,257.359 C477.968,257.359 427.445,236.467 414.904,233.534 C414.904,233.534 430.767,221.435 448.097,212.268 M324.356,145.335 C349.797,128.469 374.146,141.669 395.539,160.735 C416.939,179.793 424.31,187.126 424.31,187.126 L377.843,220.843 L304.812,199.951 C304.812,199.951 298.9,162.194 324.356,145.328 M307.277,212.268 L371.082,229.142 L321.292,281.565 C321.292,281.565 306.162,245.648 307.27,212.276 M313.005,313.079 C313.005,313.079 318.812,330.401 330.156,350.193 C330.156,350.193 305.538,343.309 294.194,335.901 C294.194,335.901 303.607,319.963 313.013,313.079 M193.19,274.614 C169.957,250.048 165.894,230.242 182.116,219.99 C198.353,209.717 275.44,212.657 275.44,212.657 C275.44,212.657 279.129,248.2 289.088,268.373 C299.055,288.539 304.218,300.624 304.218,300.624 C304.218,300.624 281.718,325.556 278.777,330.33 C278.762,330.33 216.432,299.165 193.198,274.606 M287.826,488.818 C251.041,501.741 226.693,506.418 217.295,494.864 C207.889,483.319 207.343,475.335 217.295,450.328 C227.247,425.321 266.531,360.146 286.449,343.101 C286.449,343.101 303.6,358.216 343.437,369.492 C343.437,369.492 365.287,416.498 386.59,441.79 C386.575,441.79 324.619,475.888 287.819,488.811 M395.711,434.949 C393.871,434.223 368.048,388.407 371.37,382.533 L445.134,405.265 C445.134,405.265 428.897,416.265 416.364,423.972 C403.83,431.664 397.56,435.697 395.711,434.972 M507.098,489.198 C485.698,499.839 469.85,500.946 444.394,481.865 C418.953,462.807 402.715,441.908 402.715,441.908 C402.715,441.908 434.068,425.783 457.309,407.824 C457.309,407.824 484.605,414.065 503.776,416.998 C522.962,419.931 531.447,420.665 531.447,420.665 C531.447,420.665 528.491,478.581 507.098,489.206 M603.745,373.531 C596.359,394.063 588.981,397.355 573.125,398.448 C557.262,399.555 537.358,399.196 537.358,399.196 C537.358,399.196 528.499,354.824 526.284,347.491 C526.284,347.491 552.099,328.433 560.959,319.64 C560.959,319.655 611.115,353.013 603.737,373.538" fill="#61DAFB"/>
    <g>
      <path d="M449.547,279.476 L450.213,270.643 C450.359,268.643 448.856,266.905 446.857,266.759 C444.857,266.613 443.117,268.116 442.972,270.115 L442.528,279.958 C444.806,279.222 447.221,279.065 449.547,279.476 z" fill="#7ED8F7"/>
      <path d="M461.519,293.331 C461.588,295.693 461.083,298.059 460.024,300.207 L469.827,301.194 C471.827,301.34 473.566,299.837 473.712,297.838 C473.857,295.838 472.355,294.099 470.355,293.953 L461.519,293.331 z" fill="#7ED8F7"/>
      <path d="M387.819,340.117 L381.185,345.851 C379.668,347.162 379.5,349.454 380.811,350.971 C382.122,352.488 384.415,352.656 385.932,351.345 L392.567,345.611 C391.636,344.858 390.755,344.017 389.945,343.079 C389.135,342.141 388.43,341.148 387.819,340.117 z" fill="#7ED8F7"/>
      <path d="M433.347,305.575 C432.372,306.247 431.32,306.879 430.18,307.461 C426.788,309.19 422.864,310.395 418.649,311.04 C419.456,312.605 420.486,314.153 421.74,315.605 C422.994,317.056 424.377,318.302 425.808,319.325 C427.058,315.248 428.819,311.54 431.022,308.436 C431.763,307.391 432.541,306.442 433.347,305.575 z" fill="#7ED8F7"/>
      <path d="M459.629,332.881 C460.356,322.922 457.758,313.775 453.404,308.737 C451.345,306.353 448.894,304.89 446.215,304.695 C437.873,304.087 429.923,315.967 428.854,330.637 C428.128,340.596 430.726,349.743 435.079,354.781 C437.138,357.165 439.59,358.628 442.269,358.823 C450.61,359.431 458.56,347.551 459.629,332.881 z" fill="#7ED8F7"/>
      <path d="M436.084,292.97 C436.275,290.347 435.243,287.696 433.126,285.245 C432.123,284.085 430.877,282.97 429.402,281.922 C424.431,278.394 417.591,276.153 410.142,275.61 C395.471,274.54 382.564,280.684 381.956,289.025 C381.348,297.365 393.227,305.317 407.898,306.386 C422.568,307.456 435.476,301.312 436.084,292.97 z" fill="#7ED8F7"/>
      <path d="M397.891,315.821 L395.377,317.994 C388.94,323.556 388.228,333.319 393.79,339.756 C399.353,346.193 409.115,346.905 415.553,341.342 L418.066,339.171 C413.359,338.309 408.362,335.381 404.297,330.677 C400.232,325.972 398.06,320.604 397.891,315.821 z" fill="#7ED8F7"/>
      <path d="M413.245,311.552 C411.368,311.624 409.457,311.596 407.528,311.455 C406.318,311.367 405.122,311.233 403.941,311.064 C401.754,314.971 403.394,321.857 408.143,327.354 C412.893,332.85 419.468,335.471 423.652,333.874 C423.656,332.681 423.696,331.478 423.784,330.268 C423.925,328.34 424.174,326.446 424.518,324.601 C422.179,323.175 419.921,321.273 417.895,318.928 C415.868,316.583 414.316,314.072 413.245,311.552 z" fill="#7ED8F7"/>
      <path d="M440.227,287.155 C441.027,289.179 441.308,291.214 441.153,293.34 C440.914,296.621 439.519,299.67 437.116,302.317 C440.084,300.324 443.303,299.387 446.584,299.625 C448.711,299.78 450.683,300.354 452.57,301.438 L453.182,300.909 C457.12,297.506 457.556,291.534 454.153,287.596 C450.75,283.657 444.777,283.222 440.839,286.625 L440.227,287.154 z" fill="#7ED8F7"/>
    </g>
  </g>
</svg>
